<svg xmlns="http://www.w3.org/2000/svg" viewBox="0 0 24 24" width="28" height="28" color="#121212" fill="none">
    <path d="M12 1.75C16.2802 1.75 19.75 5.21979 19.75 9.5V12.2559C19.75 12.8526 19.9872 13.4247 20.4092 13.8467L21.0127 14.4502C21.4849 14.9225 21.75 15.5635 21.75 16.2314C21.7498 17.6223 20.6223 18.7498 19.2314 18.75H16.1826C15.8283 20.7394 14.0912 22.25 12 22.25C9.90879 22.25 8.17171 20.7394 7.81738 18.75H4.76855C3.37767 18.7498 2.25017 17.6223 2.25 16.2314C2.25 15.5635 2.51512 14.9225 2.9873 14.4502L3.59082 13.8467C4.01276 13.4247 4.24998 12.8526 4.25 12.2559V9.5C4.25 5.21979 7.71979 1.75 12 1.75ZM9.35645 18.75C9.68316 19.9039 10.7415 20.75 12 20.75C13.2585 20.75 14.3168 19.9039 14.6436 18.75H9.35645ZM12 3.25C8.54822 3.25 5.75 6.04822 5.75 9.5V12.2559C5.74998 13.2504 5.35461 14.204 4.65137 14.9072L4.04883 15.5107C3.85775 15.7018 3.75 15.9612 3.75 16.2314C3.75017 16.7939 4.2061 17.2498 4.76855 17.25H19.2314C19.7939 17.2498 20.2498 16.7939 20.25 16.2314C20.25 15.9612 20.1422 15.7018 19.9512 15.5107L19.3486 14.9072C18.6454 14.204 18.25 13.2504 18.25 12.2559V9.5C18.25 6.04822 15.4518 3.25 12 3.25Z" fill="currentColor" />
</svg>