<svg xmlns="http://www.w3.org/2000/svg" viewBox="0 0 24 24" width="28" height="28" color="#121212" fill="none">
    <defs />
    <path fill="currentColor" d="M2,1.25 L2.966,1.25 C4.239,1.25 5.372,2.093 5.69,3.328 L6.184,5.25 L22,5.25 C22.414,5.25 22.75,5.586 22.75,6 C22.75,6.414 22.414,6.75 22,6.75 L21.671,6.75 L21.109,11.812 C20.959,13.165 20.718,14.251 19.975,14.974 C19.231,15.697 18.139,15.908 16.782,16.021 L8.493,16.712 C8.409,16.89 8.305,17.06 8.182,17.22 L7.703,17.84 C8.151,18.195 8.487,18.685 8.646,19.25 L14.354,19.25 C14.68,18.096 15.741,17.25 17,17.25 C18.519,17.25 19.75,18.481 19.75,20 C19.75,21.519 18.519,22.75 17,22.75 C15.741,22.75 14.68,21.904 14.354,20.75 L8.646,20.75 C8.32,21.904 7.259,22.75 6,22.75 C4.481,22.75 3.25,21.519 3.25,20 C3.25,18.481 4.481,17.25 6,17.25 C6.086,17.25 6.171,17.254 6.255,17.262 L6.995,16.303 C7.227,16.003 7.304,15.621 7.212,15.263 L4.237,3.702 C4.096,3.156 3.582,2.75 2.966,2.75 L2,2.75 C1.586,2.75 1.25,2.414 1.25,2 C1.25,1.586 1.586,1.25 2,1.25 Z M6.57,6.75 L8.665,14.89 C8.69,14.988 8.71,15.088 8.724,15.187 L16.658,14.526 C18.03,14.412 18.608,14.211 18.929,13.899 C19.249,13.587 19.466,13.014 19.618,11.646 L20.162,6.75 Z M17,21.25 C17.69,21.25 18.25,20.69 18.25,20 C18.25,19.31 17.69,18.75 17,18.75 C16.31,18.75 15.75,19.31 15.75,20 C15.75,20.69 16.31,21.25 17,21.25 Z M6,18.75 C5.31,18.75 4.75,19.31 4.75,20 C4.75,20.69 5.31,21.25 6,21.25 C6.69,21.25 7.25,20.69 7.25,20 C7.25,19.31 6.69,18.75 6,18.75 Z" />
</svg>