<svg xmlns="http://www.w3.org/2000/svg" viewBox="0 0 24 24" width="28" height="28" color="#121212" fill="none">
    <path d="M12.0001 1.75C12.7873 1.75 13.4814 2.01975 14.212 2.45996C14.9253 2.88977 15.7402 3.52484 16.7579 4.31641L18.7579 5.87207C20.0268 6.85896 20.8674 7.49024 21.3175 8.41016C21.7675 9.33029 21.7501 10.3817 21.7501 11.9893V14.5C21.7501 16.1287 21.7518 17.4257 21.6153 18.4404C21.476 19.4767 21.1801 20.3298 20.505 21.0049C19.8299 21.68 18.9768 21.9759 17.9405 22.1152C16.9259 22.2516 15.6288 22.25 14.0001 22.25H10.0001C8.37142 22.25 7.07433 22.2517 6.05966 22.1152C5.02345 21.9759 4.17032 21.68 3.49521 21.0049C2.82011 20.3298 2.52418 19.4767 2.38486 18.4404C2.28254 17.6794 2.25799 16.7596 2.25204 15.6602L2.25009 14.5V11.9893C2.25009 10.3817 2.2327 9.33028 2.68271 8.41016C3.13281 7.49024 3.97344 6.85894 5.24228 5.87207L7.24228 4.31641C8.26 3.52485 9.07485 2.88977 9.78818 2.45996C10.5188 2.01974 11.2129 1.75002 12.0001 1.75ZM12.0001 3.25C11.5866 3.25002 11.1641 3.38176 10.5626 3.74414C9.94354 4.11715 9.20975 4.68697 8.16318 5.50098L6.16318 7.05566C4.77819 8.13287 4.29113 8.5342 4.02939 9.06934C3.76768 9.60446 3.75009 10.2348 3.75009 11.9893V14.5C3.75009 16.1709 3.75137 17.3488 3.87118 18.2402C3.98814 19.1101 4.20579 19.5944 4.55575 19.9443C4.90573 20.2943 5.38998 20.5119 6.25986 20.6289C7.15131 20.7487 8.32922 20.75 10.0001 20.75H14.0001C15.671 20.75 16.8489 20.7487 17.7403 20.6289C18.6102 20.512 19.0945 20.2943 19.4444 19.9443C19.7944 19.5944 20.012 19.1102 20.129 18.2402C20.2488 17.3488 20.2501 16.1709 20.2501 14.5V11.9893C20.2501 10.2348 20.2325 9.60447 19.9708 9.06934C19.7091 8.53421 19.222 8.13288 17.837 7.05566L15.837 5.50098C14.7904 4.68697 14.0567 4.11714 13.4376 3.74414C12.8361 3.38176 12.4136 3.25 12.0001 3.25ZM14.5392 16.4082C14.8659 16.1538 15.3374 16.2124 15.5919 16.5391C15.8463 16.8659 15.7877 17.3373 15.461 17.5918C14.5274 18.3185 13.3142 18.75 12.0001 18.75C10.686 18.75 9.47273 18.3185 8.53915 17.5918C8.21248 17.3373 8.15392 16.8658 8.40829 16.5391C8.66275 16.2124 9.13423 16.1539 9.46103 16.4082C10.1265 16.9261 11.0138 17.25 12.0001 17.25C12.9864 17.25 13.8737 16.9261 14.5392 16.4082Z" fill="currentColor" />
</svg>