<svg xmlns="http://www.w3.org/2000/svg" viewBox="0 0 24 24" width="28" height="28" color="#121212" fill="none">
    <path d="M11.1113 2.25C11.7132 2.25 12.2617 2.25138 12.7598 2.26172C12.8014 2.25455 12.844 2.25001 12.8877 2.25H15.1113C16.4261 2.25 17.4862 2.24879 18.3223 2.35938C19.1802 2.47286 19.9065 2.71512 20.4971 3.27734C21.087 3.839 21.3676 4.55354 21.5273 5.40723C21.6832 6.2401 21.7395 7.3045 21.8125 8.62598L22.1445 14.626C22.2253 16.0895 22.2911 17.2638 22.2168 18.1865C22.1408 19.1305 21.9109 19.9313 21.3057 20.5752C20.6998 21.2198 19.9161 21.4969 18.9814 21.626C18.0688 21.752 16.8986 21.75 15.4424 21.75H12.5566C12.5409 21.75 12.5253 21.748 12.5098 21.7471C12.1729 21.749 11.8176 21.75 11.4434 21.75H8.55663C7.10076 21.75 5.93102 21.7519 5.01854 21.626C4.08386 21.4969 3.29926 21.2198 2.69335 20.5752C2.08835 19.9314 1.85823 19.1304 1.78222 18.1865C1.70793 17.2638 1.77467 16.0895 1.85546 14.626L2.18651 8.62598C2.25946 7.30444 2.31676 6.24011 2.47265 5.40723C2.63243 4.55354 2.91295 3.839 3.50292 3.27734C4.09333 2.71539 4.8191 2.47288 5.67675 2.35938C6.51284 2.24878 7.57385 2.25 8.88866 2.25H11.1113ZM8.88866 3.75C7.53255 3.75 6.58892 3.75116 5.87401 3.8457C5.18099 3.93737 4.80852 4.10586 4.5371 4.36426C4.2651 4.62323 4.07704 4.9902 3.94726 5.68359C3.81362 6.39779 3.75975 7.34684 3.68456 8.70898L3.35351 14.709C3.27033 16.2158 3.21314 17.2694 3.27733 18.0664C3.33983 18.8424 3.51027 19.2533 3.7871 19.5479C4.06323 19.8415 4.45967 20.0341 5.22362 20.1396C6.00964 20.2482 7.05684 20.25 8.55663 20.25H11.4434C12.9431 20.25 13.9904 20.2482 14.7764 20.1396C15.5403 20.0341 15.9368 19.8416 16.2129 19.5479C16.4897 19.2533 16.6602 18.8424 16.7227 18.0664C16.7868 17.2694 16.7297 16.2158 16.6465 14.709L16.3154 8.70898C16.2402 7.34686 16.1864 6.39778 16.0527 5.68359C15.923 4.99024 15.7349 4.62323 15.4629 4.36426C15.1915 4.10586 14.819 3.93737 14.126 3.8457C13.4111 3.75115 12.4675 3.75 11.1113 3.75H8.88866ZM16.9082 3.76465C17.2277 4.2346 17.4105 4.78322 17.5273 5.40723C17.6832 6.24011 17.7405 7.30446 17.8135 8.62598L18.1445 14.626C18.2253 16.0895 18.2921 17.2638 18.2178 18.1865C18.1548 18.9682 17.9847 19.6509 17.585 20.2285C18.0422 20.2131 18.4341 20.1869 18.7764 20.1396C19.5403 20.0341 19.9368 19.8416 20.2129 19.5479C20.4897 19.2534 20.6592 18.8423 20.7217 18.0664C20.7859 17.2694 20.7297 16.2157 20.6465 14.709L20.3154 8.70898C20.2402 7.3469 20.1864 6.39778 20.0527 5.68359C19.923 4.99041 19.7348 4.62322 19.4629 4.36426C19.1915 4.1059 18.8188 3.93738 18.126 3.8457C17.7804 3.79999 17.3814 3.77712 16.9082 3.76465ZM13 5.25C13.4142 5.25001 13.75 5.58579 13.75 6C13.75 8.07106 12.0711 9.74999 9.99999 9.75C7.92892 9.75 6.24999 8.07107 6.24999 6C6.24999 5.58579 6.58578 5.25 6.99999 5.25C7.4142 5.25001 7.74999 5.58579 7.74999 6C7.74999 7.24264 8.75735 8.25 9.99999 8.25C11.2426 8.24999 12.25 7.24264 12.25 6C12.25 5.58579 12.5858 5.25 13 5.25Z" fill="currentColor" />
</svg>